<svg width="1200" height="630" viewBox="0 0 1200 630" fill="none" xmlns="http://www.w3.org/2000/svg">
  <!-- Background -->
  <rect width="1200" height="630" fill="#0f172a"/>
  
  <!-- Gradient overlay -->
  <rect width="1200" height="630" fill="url(#bgGradient)" opacity="0.5"/>
  
  <!-- Logo circle -->
  <circle cx="200" cy="315" r="80" fill="url(#logoGradient)"/>
  
  <!-- Book icon in logo -->
  <g transform="translate(160, 275)">
    <path d="M2 3h6a4 4 0 0 1 4 4v14a3 3 0 0 0-3-3H2z" stroke="white" stroke-width="3" fill="white" transform="scale(3)"/>
    <path d="M22 3h-6a4 4 0 0 0-4 4v14a3 3 0 0 1 3-3h7z" stroke="white" stroke-width="3" fill="white" transform="scale(3)"/>
  </g>
  
  <!-- Main text -->
  <text x="320" y="280" font-family="Arial, sans-serif" font-size="64" font-weight="bold" fill="white">
    AU Casino Guide
  </text>
  
  <!-- Subtitle -->
  <text x="320" y="340" font-family="Arial, sans-serif" font-size="32" fill="#94a3b8">
    Top 10 Online Casinos Australia 2026
  </text>
  
  <!-- Trust badges -->
  <g transform="translate(320, 380)">
    <!-- Licensed badge -->
    <rect width="220" height="60" rx="8" fill="#22c55e" opacity="0.2"/>
    <text x="110" y="38" font-family="Arial, sans-serif" font-size="20" font-weight="600" fill="#22c55e" text-anchor="middle">
      ✓ Licensed
    </text>
    
    <!-- AUD Deposits badge -->
    <rect x="240" width="220" height="60" rx="8" fill="#f59e0b" opacity="0.2"/>
    <text x="350" y="38" font-family="Arial, sans-serif" font-size="20" font-weight="600" fill="#f59e0b" text-anchor="middle">
      AUD Deposits
    </text>
    
    <!-- PayID badge -->
    <rect x="480" width="220" height="60" rx="8" fill="#3b82f6" opacity="0.2"/>
    <text x="590" y="38" font-family="Arial, sans-serif" font-size="20" font-weight="600" fill="#3b82f6" text-anchor="middle">
      PayID Support
    </text>
  </g>
  
  <!-- Decorative elements -->
  <circle cx="1050" cy="150" r="100" fill="url(#accentGradient)" opacity="0.1"/>
  <circle cx="1100" cy="500" r="80" fill="url(#accentGradient)" opacity="0.1"/>
  
  <!-- Gradients -->
  <defs>
    <linearGradient id="bgGradient" x1="0%" y1="0%" x2="100%" y2="100%">
      <stop offset="0%" style="stop-color:#1e293b;stop-opacity:1" />
      <stop offset="100%" style="stop-color:#0f172a;stop-opacity:1" />
    </linearGradient>
    <linearGradient id="logoGradient" x1="0%" y1="0%" x2="100%" y2="100%">
      <stop offset="0%" style="stop-color:#f59e0b;stop-opacity:1" />
      <stop offset="100%" style="stop-color:#dc2626;stop-opacity:1" />
    </linearGradient>
    <linearGradient id="accentGradient" x1="0%" y1="0%" x2="100%" y2="100%">
      <stop offset="0%" style="stop-color:#f59e0b;stop-opacity:1" />
      <stop offset="100%" style="stop-color:#dc2626;stop-opacity:1" />
    </linearGradient>
  </defs>
</svg>
